<?xml version="1.0" encoding="UTF-8" standalone="no"?>
<svg id="svg4213" xmlns:rdf="http://www.w3.org/1999/02/22-rdf-syntax-ns#" xmlns="http://www.w3.org/2000/svg" height="564" width="715" version="1.1" xmlns:cc="http://creativecommons.org/ns#" xmlns:dc="http://purl.org/dc/elements/1.1/">
<g id="imagebot_2" label="Layer 1">
<g id="imagebot_3" transform="translate(-15.4339 -24.5274) matrix(2.05758 0 0 2.05758 -2373.19 -1763.3)" label="Layer 1">
<g id="imagebot_64" stroke="#000" stroke-linecap="round" stroke-miterlimit="4">
<path id="imagebot_71" stroke-linejoin="round" d="M1253.1,1068.8s1,21.4-8,30.4c-14,14-51.4,8-51.4,8-20.5,0.1-33.2,3.2-32.8,24.9v11h107.7v-9.2h132.3v9.2h107.6v-11c0.5-21.7-12.3-24.8-32.7-24.9,0,0-37.4,6.1-51.5-8-9-9-8-30.4-8-30.4h-163.2z" stroke-width="1.334" fill="#FFF"/>
<g id="imagebot_68" stroke-dashoffset="0" stroke-dasharray="4,4" fill="none">
<path id="imagebot_70" d="M1184.7,1107.5v35.3"/>
<path id="imagebot_69" d="M1188.7,1107.5v35.3"/>
</g>
<g id="imagebot_65" stroke-dashoffset="0" transform="translate(294.1)" stroke-dasharray="4,4" fill="none">
<path id="imagebot_67" d="M1184.7,1107.5v35.3"/>
<path id="imagebot_66" d="M1188.7,1107.5v35.3"/>
</g>
</g>
<path id="imagebot_63" stroke-linejoin="round" d="M1461.1,1000.2c0,69.8-56.6,126.4-126.4,126.4s-126.3-56.6-126.3-126.4c0-69.75,56.5-126.32,126.3-126.32s126.4,56.57,126.4,126.32z" stroke="#000" stroke-linecap="round" stroke-miterlimit="4" stroke-width="1.334" fill="#FFF"/>
<rect id="imagebot_62" stroke-linejoin="round" height="93.602" width="203.58" stroke="#000" stroke-linecap="round" stroke-miterlimit="4" y="868.9" x="1232.9" stroke-width="1.334" fill="#FFF"/>
<rect id="imagebot_61" stroke-linejoin="round" height="69.421" width="20.28" stroke="#000" stroke-linecap="round" stroke-miterlimit="4" y="988.52" x="1267.1" stroke-width="1.334" fill="#000"/>
<rect id="imagebot_60" stroke-linejoin="round" height="69.421" width="20.28" stroke="#000" stroke-linecap="round" stroke-miterlimit="4" y="988.52" x="1327.1" stroke-width="1.334" fill="#000"/>
<rect id="imagebot_59" stroke-linejoin="round" height="69.421" width="20.28" stroke="#000" stroke-linecap="round" stroke-miterlimit="4" y="988.52" x="1387.1" stroke-width="1.334" fill="#000"/>
<path id="imagebot_58" stroke-linejoin="round" d="M1251.1,884.28l32.6,22.06v61.77l-6.9,6.9" stroke="#000" stroke-linecap="round" stroke-miterlimit="4" stroke-width="2" fill="none"/>
<g id="imagebot_53" font-family="Arial" transform="translate(0 -2)" font-weight="normal" font-style="normal" fill="#000000">
<text id="imagebot_56" font-size="20px" xml:space="preserve" y="889.0313" x="1261.4338">
     <tspan id="imagebot_57" y="889.0313" x="1261.4338">V</tspan>
    </text>
<text id="imagebot_54" font-size="14px" xml:space="preserve" y="894.6656" x="1271.7538">
     <tspan id="imagebot_55" y="894.6656" x="1271.7538">1</tspan>
    </text>
</g>
<g id="imagebot_48" font-family="Arial" transform="translate(0 60)" font-weight="normal" font-style="normal" fill="#000000">
<text id="imagebot_51" font-size="20px" xml:space="preserve" y="889.0313" x="1261.4338">
     <tspan id="imagebot_52" y="889.0313" x="1261.4338">V</tspan>
    </text>
<text id="imagebot_49" font-size="14px" xml:space="preserve" y="894.6656" x="1271.7538">
     <tspan id="imagebot_50" y="894.6656" x="1271.7538">2</tspan>
    </text>
</g>
<g id="imagebot_43" font-family="Arial" transform="translate(60 -2)" font-weight="normal" font-style="normal" fill="#000000">
<text id="imagebot_46" font-size="20px" xml:space="preserve" y="889.0313" x="1261.4338">
     <tspan id="imagebot_47" y="889.0313" x="1261.4338">U</tspan>
    </text>
<text id="imagebot_44" font-size="14px" xml:space="preserve" y="894.6656" x="1273.7538">
     <tspan id="imagebot_45" y="894.6656" x="1273.7538">1</tspan>
    </text>
</g>
<g id="imagebot_38" font-family="Arial" transform="translate(60 60)" font-weight="normal" font-style="normal" fill="#000000">
<text id="imagebot_41" font-size="20px" xml:space="preserve" y="889.0313" x="1261.4338">
     <tspan id="imagebot_42" y="889.0313" x="1261.4338">U</tspan>
    </text>
<text id="imagebot_39" font-size="14px" xml:space="preserve" y="894.6656" x="1275.7538">
     <tspan id="imagebot_40" y="894.6656" x="1275.7538">2</tspan>
    </text>
</g>
<g id="imagebot_33" font-family="Arial" transform="translate(118 -2)" font-weight="normal" font-style="normal" fill="#000000">
<text id="imagebot_36" font-size="20px" xml:space="preserve" y="889.0313" x="1261.4338">
     <tspan id="imagebot_37" y="889.0313" x="1261.4338">W</tspan>
    </text>
<text id="imagebot_34" font-size="14px" xml:space="preserve" y="894.6656" x="1277.7538">
     <tspan id="imagebot_35" y="894.6656" x="1277.7538">1</tspan>
    </text>
</g>
<g id="imagebot_28" font-family="Arial" transform="translate(118 60)" font-weight="normal" font-style="normal" fill="#000000">
<text id="imagebot_31" font-size="20px" xml:space="preserve" y="889.0313" x="1261.4338">
     <tspan id="imagebot_32" y="889.0313" x="1261.4338">W</tspan>
    </text>
<text id="imagebot_29" font-size="14px" xml:space="preserve" y="894.6656" x="1277.7538">
     <tspan id="imagebot_30" y="894.6656" x="1277.7538">2</tspan>
    </text>
</g>
<path id="imagebot_27" stroke-linejoin="round" d="M1277,974.94v95.46h26.4v-83.33l7.8-20.96" stroke="#000" stroke-linecap="round" stroke-miterlimit="4.1" stroke-width="2" fill="none"/>
<path id="imagebot_26" stroke-linejoin="round" d="M1337,974.39v96.01h26.4v-83.33l7.8-20.96" stroke="#000" stroke-linecap="round" stroke-miterlimit="4.1" stroke-width="2" fill="none"/>
<path id="imagebot_25" stroke-linejoin="round" d="M1397.8,974.6v105.9h-146.5v-115.35" stroke="#000" stroke-linecap="round" stroke-miterlimit="4.1" stroke-width="2" fill="none"/>
<path id="imagebot_24" stroke-linejoin="round" d="M1311.3,883.17l36.7,22.07v61.77l-10.9,6.89" stroke="#000" stroke-linecap="round" stroke-miterlimit="4" stroke-width="2" fill="none"/>
<path id="imagebot_23" stroke-linejoin="round" d="M1371.3,883.17l36.7,22.07v61.77l-10.9,6.89" stroke="#000" stroke-linecap="round" stroke-miterlimit="4" stroke-width="2" fill="none"/>
<g id="imagebot_18" stroke-linejoin="round" stroke="#000" stroke-linecap="round" stroke-miterlimit="4" stroke-width="2" fill="none">
<path id="imagebot_22" d="M1424.3,914.1v18.92"/>
<path id="imagebot_21" d="M1433.8,933.56h-19"/>
<path id="imagebot_20" d="M1430.8,939.56h-13"/>
<path id="imagebot_19" d="M1428.8,945.56h-9"/>
</g>
<g id="imagebot_4" stroke-linejoin="round" transform="translate(-25.5844 48)" stroke="#000" stroke-linecap="round" stroke-miterlimit="4">
<path id="imagebot_17" d="M1336.9,838.7v58.71" stroke-width="4" fill="none"/>
<path id="imagebot_16" d="M1396.9,836.17v60.96" stroke-width="4" fill="none"/>
<path id="imagebot_15" d="M1276.9,836.95v59.08" stroke-width="4" fill="none"/>
<path id="imagebot_14" d="M1276.9,896.08v21.72" stroke-width="2" fill="none"/>
<path id="imagebot_13" d="M1284.5,896.66c0,4.18-3.4,7.58-7.6,7.58-4.1,0-7.5-3.4-7.5-7.58s3.4-7.58,7.5-7.58c4.2,0,7.6,3.4,7.6,7.58z" stroke-width="1.2" fill="#FFF"/>
<path id="imagebot_12" d="M1404.5,836.66c0,4.18-3.4,7.58-7.6,7.58-4.1,0-7.5-3.4-7.5-7.58s3.4-7.58,7.5-7.58c4.2,0,7.6,3.4,7.6,7.58z" stroke-width="1.2" fill="#FFF"/>
<path id="imagebot_11" d="M1336.9,896.08v21.72" stroke-width="2" fill="none"/>
<path id="imagebot_10" d="M1344.5,896.66c0,4.18-3.4,7.58-7.6,7.58-4.1,0-7.5-3.4-7.5-7.58s3.4-7.58,7.5-7.58c4.2,0,7.6,3.4,7.6,7.58z" stroke-width="1.2" fill="#FFF"/>
<path id="imagebot_9" d="M1396.9,896.08v21.72" stroke-width="2" fill="none"/>
<path id="imagebot_8" d="M1404.5,896.66c0,4.18-3.4,7.58-7.6,7.58-4.1,0-7.5-3.4-7.5-7.58s3.4-7.58,7.5-7.58c4.2,0,7.6,3.4,7.6,7.58z" stroke-width="1.2" fill="#FFF"/>
<path id="imagebot_7" d="M1344.5,836.66c0,4.18-3.4,7.58-7.6,7.58-4.1,0-7.5-3.4-7.5-7.58s3.4-7.58,7.5-7.58c4.2,0,7.6,3.4,7.6,7.58z" stroke-width="1.2" fill="#FFF"/>
<path id="imagebot_6" d="M1284.5,836.66c0,4.18-3.4,7.58-7.6,7.58-4.1,0-7.5-3.4-7.5-7.58s3.4-7.58,7.5-7.58c4.2,0,7.6,3.4,7.6,7.58z" stroke-width="1.2" fill="#FFF"/>
<path id="imagebot_5" d="M1457.2,866.38c0,4.18-3.4,7.58-7.5,7.58-4.2,0-7.6-3.4-7.6-7.58s3.4-7.58,7.6-7.58c4.1,0,7.5,3.4,7.5,7.58z" stroke-width="1.2" fill="#FFF"/>
</g>
</g>
<title id="title4285">Layer 1</title>
</g>
<metadata id="metadata4287">image/svg+xmlOpen Clip Art LibraryA simple representation of a electric 3-phase motor2011-05-31T17:53:40http://openclipart.org/detail/141613/a-simple-representation-of-a-electric-3-phase-motor-by-eyprosEyprosclip artclipart
<rdf:RDF>
<cc:Work rdf:about="">
<dc:format>image/svg+xml</dc:format>
<dc:type rdf:resource="http://purl.org/dc/dcmitype/StillImage"/>
<dc:title/>
</cc:Work>
</rdf:RDF>
</metadata>
</svg>
