<svg width="714.9999999999999" height="563.9999999999999" xmlns="http://www.w3.org/2000/svg">

 <g label="Layer 1" id="imagebot_2">
  <g label="Layer 1" transform="translate(-15.4339 -24.5274) matrix(2.05758 0 0 2.05758 -2373.19 -1763.3)" id="imagebot_3">
   <g id="imagebot_64">
    <path d="M 1253.09 1068.84 C 1253.09 1068.84 1254.14 1090.19 1245.09 1099.25 C 1231.09 1113.25 1193.68 1107.25 1193.68 1107.25 C 1173.24 1107.32 1160.48 1110.35 1160.9 1132.06 L 1160.9 1143.12 L 1268.56 1143.12 L 1268.56 1133.9 L 1400.9 1133.9 L 1400.9 1143.12 L 1508.53 1143.12 L 1508.53 1132.06 C 1508.95 1110.35 1496.23 1107.32 1475.78 1107.25 C 1475.78 1107.25 1438.35 1113.26 1424.34 1099.25 C 1415.29 1090.19 1416.34 1068.84 1416.34 1068.84 L 1253.09 1068.84 Z" stroke-width="1.334" stroke-miterlimit="4" stroke-linejoin="round" stroke-linecap="round" stroke="#000000" fill="#ffffff" id="imagebot_71"/>
    <g id="imagebot_68">
     <path d="M 1184.73 1107.52 L 1184.73 1142.82" stroke-miterlimit="4" stroke-linecap="round" stroke-dashoffset="0" stroke-dasharray="4,4" stroke="#000000" fill="none" id="imagebot_70"/>
     <path d="M 1188.73 1107.52 L 1188.73 1142.82" stroke-miterlimit="4" stroke-linecap="round" stroke-dashoffset="0" stroke-dasharray="4,4" stroke="#000000" fill="none" id="imagebot_69"/>
    </g>
    <g transform="translate(294.1)" id="imagebot_65">
     <path d="M 1184.73 1107.52 L 1184.73 1142.82" stroke-miterlimit="4" stroke-linecap="round" stroke-dashoffset="0" stroke-dasharray="4,4" stroke="#000000" fill="none" id="imagebot_67"/>
     <path d="M 1188.73 1107.52 L 1188.73 1142.82" stroke-miterlimit="4" stroke-linecap="round" stroke-dashoffset="0" stroke-dasharray="4,4" stroke="#000000" fill="none" id="imagebot_66"/>
    </g>
   </g>
   <path d="M 1461.08 1000.24 C 1461.08 1070.03 1404.51 1126.6 1334.72 1126.6 C 1264.93 1126.6 1208.36 1070.03 1208.36 1000.24 C 1208.36 930.452 1264.93 873.878 1334.72 873.878 C 1404.51 873.878 1461.08 930.452 1461.08 1000.24 Z" stroke-width="1.334" stroke-miterlimit="4" stroke-linejoin="round" stroke-linecap="round" stroke="#000000" fill="#ffffff" id="imagebot_63"/>
   <rect height="93.6016" width="203.583" y="868.898" x="1232.93" stroke-width="1.334" stroke-miterlimit="4" stroke-linejoin="round" stroke-linecap="round" stroke="#000000" fill="#ffffff" id="imagebot_62"/>
   <rect height="69.4212" width="20.2803" y="988.521" x="1267.1" stroke-width="1.334" stroke-miterlimit="4" stroke-linejoin="round" stroke-linecap="round" stroke="#000000" fill="#000000" id="imagebot_61"/>
   <rect height="69.4212" width="20.2803" y="988.521" x="1327.1" stroke-width="1.334" stroke-miterlimit="4" stroke-linejoin="round" stroke-linecap="round" stroke="#000000" fill="#000000" id="imagebot_60"/>
   <rect height="69.4212" width="20.2803" y="988.521" x="1387.1" stroke-width="1.334" stroke-miterlimit="4" stroke-linejoin="round" stroke-linecap="round" stroke="#000000" fill="#000000" id="imagebot_59"/>
   <path d="M 1251.06 884.277 L 1283.74 906.339 L 1283.74 968.113 L 1276.85 975.007" stroke-width="2" stroke-miterlimit="4" stroke-linejoin="round" stroke-linecap="round" stroke="#000000" fill="none" id="imagebot_58"/>
   <g transform="translate(0 -2)" id="imagebot_53">
    <text xml:space="preserve" y="889.0313" x="1261.4338" fill="#000000" font-weight="normal" font-style="normal" font-size="20px" font-family="Arial" id="imagebot_56">
     <tspan y="889.0313" x="1261.4338" id="imagebot_57">V</tspan>
    </text>
    <text xml:space="preserve" y="894.6656" x="1271.7538" fill="#000000" font-weight="normal" font-style="normal" font-size="14px" font-family="Arial" id="imagebot_54">
     <tspan y="894.6656" x="1271.7538" id="imagebot_55">1</tspan>
    </text>
   </g>
   <g transform="translate(0 60)" id="imagebot_48">
    <text xml:space="preserve" y="889.0313" x="1261.4338" fill="#000000" font-weight="normal" font-style="normal" font-size="20px" font-family="Arial" id="imagebot_51">
     <tspan y="889.0313" x="1261.4338" id="imagebot_52">V</tspan>
    </text>
    <text xml:space="preserve" y="894.6656" x="1271.7538" fill="#000000" font-weight="normal" font-style="normal" font-size="14px" font-family="Arial" id="imagebot_49">
     <tspan y="894.6656" x="1271.7538" id="imagebot_50">2</tspan>
    </text>
   </g>
   <g transform="translate(60 -2)" id="imagebot_43">
    <text xml:space="preserve" y="889.0313" x="1261.4338" fill="#000000" font-weight="normal" font-style="normal" font-size="20px" font-family="Arial" id="imagebot_46">
     <tspan y="889.0313" x="1261.4338" id="imagebot_47">U</tspan>
    </text>
    <text xml:space="preserve" y="894.6656" x="1273.7538" fill="#000000" font-weight="normal" font-style="normal" font-size="14px" font-family="Arial" id="imagebot_44">
     <tspan y="894.6656" x="1273.7538" id="imagebot_45">1</tspan>
    </text>
   </g>
   <g transform="translate(60 60)" id="imagebot_38">
    <text xml:space="preserve" y="889.0313" x="1261.4338" fill="#000000" font-weight="normal" font-style="normal" font-size="20px" font-family="Arial" id="imagebot_41">
     <tspan y="889.0313" x="1261.4338" id="imagebot_42">U</tspan>
    </text>
    <text xml:space="preserve" y="894.6656" x="1275.7538" fill="#000000" font-weight="normal" font-style="normal" font-size="14px" font-family="Arial" id="imagebot_39">
     <tspan y="894.6656" x="1275.7538" id="imagebot_40">2</tspan>
    </text>
   </g>
   <g transform="translate(118 -2)" id="imagebot_33">
    <text xml:space="preserve" y="889.0313" x="1261.4338" fill="#000000" font-weight="normal" font-style="normal" font-size="20px" font-family="Arial" id="imagebot_36">
     <tspan y="889.0313" x="1261.4338" id="imagebot_37">W</tspan>
    </text>
    <text xml:space="preserve" y="894.6656" x="1277.7538" fill="#000000" font-weight="normal" font-style="normal" font-size="14px" font-family="Arial" id="imagebot_34">
     <tspan y="894.6656" x="1277.7538" id="imagebot_35">1</tspan>
    </text>
   </g>
   <g transform="translate(118 60)" id="imagebot_28">
    <text xml:space="preserve" y="889.0313" x="1261.4338" fill="#000000" font-weight="normal" font-style="normal" font-size="20px" font-family="Arial" id="imagebot_31">
     <tspan y="889.0313" x="1261.4338" id="imagebot_32">W</tspan>
    </text>
    <text xml:space="preserve" y="894.6656" x="1277.7538" fill="#000000" font-weight="normal" font-style="normal" font-size="14px" font-family="Arial" id="imagebot_29">
     <tspan y="894.6656" x="1277.7538" id="imagebot_30">2</tspan>
    </text>
   </g>
   <path d="M 1276.98 974.939 L 1276.98 1070.36 L 1303.45 1070.36 L 1303.45 987.073 L 1311.18 966.114" stroke-width="2" stroke-miterlimit="4.1" stroke-linejoin="round" stroke-linecap="round" stroke="#000000" fill="none" id="imagebot_27"/>
   <path d="M 1336.98 974.387 L 1336.98 1070.36 L 1363.45 1070.36 L 1363.45 987.073 L 1371.18 966.114" stroke-width="2" stroke-miterlimit="4.1" stroke-linejoin="round" stroke-linecap="round" stroke="#000000" fill="none" id="imagebot_26"/>
   <path d="M 1397.8 974.597 L 1397.8 1080.49 L 1251.33 1080.49 L 1251.33 965.148" stroke-width="2" stroke-miterlimit="4.1" stroke-linejoin="round" stroke-linecap="round" stroke="#000000" fill="none" id="imagebot_25"/>
   <path d="M 1311.33 883.173 L 1348.01 905.235 L 1348.01 967.009 L 1337.12 973.903" stroke-width="2" stroke-miterlimit="4" stroke-linejoin="round" stroke-linecap="round" stroke="#000000" fill="none" id="imagebot_24"/>
   <path d="M 1371.33 883.173 L 1408.01 905.235 L 1408.01 967.009 L 1397.12 973.903" stroke-width="2" stroke-miterlimit="4" stroke-linejoin="round" stroke-linecap="round" stroke="#000000" fill="none" id="imagebot_23"/>
   <g id="imagebot_18">
    <path d="M 1424.3 914.105 L 1424.3 933.02" stroke-width="2" stroke-miterlimit="4" stroke-linejoin="round" stroke-linecap="round" stroke="#000000" fill="none" id="imagebot_22"/>
    <path d="M 1433.76 933.563 L 1414.84 933.563" stroke-width="2" stroke-miterlimit="4" stroke-linejoin="round" stroke-linecap="round" stroke="#000000" fill="none" id="imagebot_21"/>
    <path d="M 1430.76 939.563 L 1417.84 939.563" stroke-width="2" stroke-miterlimit="4" stroke-linejoin="round" stroke-linecap="round" stroke="#000000" fill="none" id="imagebot_20"/>
    <path d="M 1428.76 945.563 L 1419.84 945.563" stroke-width="2" stroke-miterlimit="4" stroke-linejoin="round" stroke-linecap="round" stroke="#000000" fill="none" id="imagebot_19"/>
   </g>
   <g transform="translate(-25.5844 48)" id="imagebot_4">
    <path d="M 1336.94 838.702 L 1336.94 897.406" stroke-width="4" stroke-miterlimit="4" stroke-linejoin="round" stroke-linecap="round" stroke="#000000" fill="none" id="imagebot_17"/>
    <path d="M 1396.94 836.167 L 1396.94 897.13" stroke-width="4" stroke-miterlimit="4" stroke-linejoin="round" stroke-linecap="round" stroke="#000000" fill="none" id="imagebot_16"/>
    <path d="M 1276.94 836.947 L 1276.94 896.027" stroke-width="4" stroke-miterlimit="4" stroke-linejoin="round" stroke-linecap="round" stroke="#000000" fill="none" id="imagebot_15"/>
    <path d="M 1276.94 896.082 L 1276.94 917.8" stroke-width="2" stroke-miterlimit="4" stroke-linejoin="round" stroke-linecap="round" stroke="#000000" fill="none" id="imagebot_14"/>
    <path d="M 1284.52 896.659 C 1284.52 900.843 1281.12 904.235 1276.94 904.235 C 1272.76 904.235 1269.36 900.843 1269.36 896.659 C 1269.36 892.475 1272.76 889.083 1276.94 889.083 C 1281.12 889.083 1284.52 892.475 1284.52 896.659 Z" stroke-width="1.2" stroke-miterlimit="4" stroke-linejoin="round" stroke-linecap="round" stroke="#000000" fill="#ffffff" id="imagebot_13"/>
    <path d="M 1404.52 836.659 C 1404.52 840.843 1401.12 844.235 1396.94 844.235 C 1392.76 844.235 1389.36 840.843 1389.36 836.659 C 1389.36 832.475 1392.76 829.083 1396.94 829.083 C 1401.12 829.083 1404.52 832.475 1404.52 836.659 Z" stroke-width="1.2" stroke-miterlimit="4" stroke-linejoin="round" stroke-linecap="round" stroke="#000000" fill="#ffffff" id="imagebot_12"/>
    <path d="M 1336.94 896.082 L 1336.94 917.8" stroke-width="2" stroke-miterlimit="4" stroke-linejoin="round" stroke-linecap="round" stroke="#000000" fill="none" id="imagebot_11"/>
    <path d="M 1344.52 896.659 C 1344.52 900.843 1341.12 904.235 1336.94 904.235 C 1332.76 904.235 1329.36 900.843 1329.36 896.659 C 1329.36 892.475 1332.76 889.083 1336.94 889.083 C 1341.12 889.083 1344.52 892.475 1344.52 896.659 Z" stroke-width="1.2" stroke-miterlimit="4" stroke-linejoin="round" stroke-linecap="round" stroke="#000000" fill="#ffffff" id="imagebot_10"/>
    <path d="M 1396.94 896.082 L 1396.94 917.8" stroke-width="2" stroke-miterlimit="4" stroke-linejoin="round" stroke-linecap="round" stroke="#000000" fill="none" id="imagebot_9"/>
    <path d="M 1404.52 896.659 C 1404.52 900.843 1401.12 904.235 1396.94 904.235 C 1392.76 904.235 1389.36 900.843 1389.36 896.659 C 1389.36 892.475 1392.76 889.083 1396.94 889.083 C 1401.12 889.083 1404.52 892.475 1404.52 896.659 Z" stroke-width="1.2" stroke-miterlimit="4" stroke-linejoin="round" stroke-linecap="round" stroke="#000000" fill="#ffffff" id="imagebot_8"/>
    <path d="M 1344.52 836.659 C 1344.52 840.843 1341.12 844.235 1336.94 844.235 C 1332.76 844.235 1329.36 840.843 1329.36 836.659 C 1329.36 832.475 1332.76 829.083 1336.94 829.083 C 1341.12 829.083 1344.52 832.475 1344.52 836.659 Z" stroke-width="1.2" stroke-miterlimit="4" stroke-linejoin="round" stroke-linecap="round" stroke="#000000" fill="#ffffff" id="imagebot_7"/>
    <path d="M 1284.52 836.659 C 1284.52 840.843 1281.12 844.235 1276.94 844.235 C 1272.76 844.235 1269.36 840.843 1269.36 836.659 C 1269.36 832.475 1272.76 829.083 1276.94 829.083 C 1281.12 829.083 1284.52 832.475 1284.52 836.659 Z" stroke-width="1.2" stroke-miterlimit="4" stroke-linejoin="round" stroke-linecap="round" stroke="#000000" fill="#ffffff" id="imagebot_6"/>
    <path d="M 1457.24 866.379 C 1457.24 870.563 1453.84 873.955 1449.66 873.955 C 1445.48 873.955 1442.08 870.563 1442.08 866.379 C 1442.08 862.195 1445.48 858.803 1449.66 858.803 C 1453.84 858.803 1457.24 862.195 1457.24 866.379 Z" stroke-width="1.2" stroke-miterlimit="4" stroke-linejoin="round" stroke-linecap="round" stroke="#000000" fill="#ffffff" id="imagebot_5"/>
   </g>
  </g>
  <title>Layer 1</title>
 </g>
 <metadata>image/svg+xmlOpen Clip Art LibraryA simple representation of a electric 3-phase motor2011-05-31T17:53:40http://openclipart.org/detail/141613/a-simple-representation-of-a-electric-3-phase-motor-by-eyprosEyprosclip artclipart</metadata>
</svg>